<svg width="220" height="43" viewBox="0 0 220 43" fill="none" xmlns="http://www.w3.org/2000/svg">
<path fill-rule="evenodd" clip-rule="evenodd" d="M105.506 42.1968H91.7453L94.2151 28.8899H107.976L105.506 42.1968ZM22.5888 16.2834L21.3538 23.4621H29.2927L28.4106 28.7148C28.2342 29.5903 27.7049 32.3917 26.8228 33.0921C26.1171 33.6174 25.235 33.7925 24.3529 33.7925H20.1189C17.8254 33.7925 15.7084 33.2672 14.6499 30.991C13.5914 28.5397 14.4734 23.4621 14.8263 21.1859C15.1791 18.9098 16.0612 14.7076 18.0018 12.2563C18.8839 11.0307 20.1189 10.1552 21.5302 9.62997C23.118 9.1047 24.7058 8.75452 26.1171 8.92961H41.8185L47.2875 0.17509H21.5302C20.2953 0.17509 14.6499 0.17509 10.2394 2.97654C4.06469 7.00362 2.12408 14.7076 0.889138 21.361C-0.16938 26.9639 -1.05148 34.4928 3.00617 38.5199C5.29963 40.9712 9.71012 42.0217 13.0621 42.0217H33.1739C34.9381 42.0217 36.5259 41.4964 37.9373 40.621C39.525 39.3954 40.5836 37.6444 40.9364 35.7184L43.2299 23.287L43.4063 22.5867L44.2884 18.0343L44.6412 16.2834H22.5888ZM69.1635 16.2834L67.9286 23.4621H75.8675L74.9854 28.7148C74.809 29.5903 74.2797 32.3917 73.3976 33.0921C72.6919 33.6174 71.8098 33.7925 70.9277 33.7925H67.0465C64.753 33.7925 62.636 33.2672 61.5775 30.991C60.519 28.5397 61.4011 23.4621 61.7539 21.1859C62.1068 18.9098 62.9888 14.7076 64.9295 12.2563C65.8116 11.0307 67.0465 10.1552 68.4579 9.62997C69.8692 9.1047 71.2806 8.75452 72.8683 8.75452H88.5697L94.0387 0H68.105C66.8701 0 61.2247 0 56.8142 2.80145C50.4631 6.82853 48.6989 14.5325 47.4639 21.1859C46.4054 26.7888 45.5233 34.3177 49.581 38.3448C51.8744 40.7961 56.2849 41.8466 59.6369 41.8466H79.7487C81.5129 41.8466 83.1007 41.3213 84.512 40.4459C86.0998 39.2203 87.1583 37.4694 87.5112 35.5434L89.8046 23.1119L89.9811 22.4116L90.8632 17.8592L91.216 16.1083L69.1635 16.2834Z" fill="white"/>
<path fill-rule="evenodd" clip-rule="evenodd" d="M144.848 42.196C143.083 42.196 141.319 42.0209 139.908 40.7953C138.32 39.2195 138.497 37.4686 138.849 35.5426L143.966 6.65266C144.142 4.72667 145.2 2.97576 146.612 1.92522C148.2 0.699588 150.14 0.174316 152.081 0.174316H179.779L174.486 8.92883H160.373C159.667 8.92883 158.785 9.10393 158.079 9.45411C157.55 9.97938 157.197 10.6797 157.021 11.5552L156.138 16.2826H173.251L172.016 23.4613H154.904L153.492 31.6906C153.492 32.0408 153.316 32.2159 153.492 32.566C153.492 32.9162 153.669 33.0913 153.845 33.2664C154.551 33.7917 155.433 33.9668 156.315 33.7917H176.074L174.663 42.196H144.848ZM185.601 42.196L191.599 8.75375H181.366L182.778 0.174316H219.12L213.651 8.75375H205.36L199.361 42.196H185.601ZM135.145 18.5588C137.085 16.8079 138.144 14.5317 138.497 12.0805C139.026 9.10393 139.379 5.42703 137.438 2.97576C135.497 0.524497 131.969 0.174316 128.97 0.174316H99.155L97.92 7.00284L94.9209 23.4613H119.972C120.502 23.4613 121.031 23.4613 121.56 23.6364C122.09 23.8115 122.619 24.1617 122.795 24.687C123.148 25.2122 123.148 25.7375 122.972 26.4379L122.266 30.64C122.09 31.5155 121.737 32.3909 121.031 33.0913C120.678 33.4415 119.796 33.9668 117.15 33.9668H113.092L107.8 42.3711H121.737C125.441 42.3711 128.617 42.3711 131.793 39.3946C134.968 36.5931 135.497 33.2664 135.85 30.64C136.379 28.0137 136.732 25.3873 134.792 23.2862C133.557 22.0606 131.969 21.1852 130.028 21.1852V21.0101C132.322 20.4848 133.91 19.7844 135.145 18.5588ZM124.912 11.3801C124.912 11.3801 124.912 11.5552 124.912 11.3801L124.559 13.131V13.3061C124.559 13.3061 124.559 13.3061 124.559 13.4812C124.383 14.0065 124.207 14.7068 123.854 15.2321C123.324 15.7574 122.795 15.9324 122.266 16.2826C121.737 16.4577 121.031 16.4577 120.325 16.4577H110.093L110.446 14.7068L110.799 12.9559C110.799 12.7808 110.799 12.6057 110.799 12.4306L110.975 11.205C110.975 10.8548 110.975 10.5046 111.151 10.1545C111.328 9.80429 111.504 9.6292 111.857 9.27902C112.386 8.92883 113.092 8.75375 113.798 8.75375H121.737C122.619 8.75375 124.03 8.75375 124.736 9.6292C124.912 10.1545 125.089 10.8548 124.912 11.3801Z" fill="white"/>
</svg>
