<svg width="264" height="49" viewBox="0 0 264 49" fill="none" xmlns="http://www.w3.org/2000/svg">
<path d="M0 0V12.3009L18.2308 30.3093L27.3079 21.3543L27.3571 39.658L36.2137 48.367V8.36459H27.3079L18.1561 17.9347L0 0Z" fill="white"/>
<path fill-rule="evenodd" clip-rule="evenodd" d="M40.4944 40.4944V29.9157L58.4045 12.1533V9.9883H74.9368V40.4944H66.3262V32.6219H50.1383L42.315 40.4944H40.4944ZM57.9125 24.8969H66.2278V16.6308L57.9125 24.8969Z" fill="white"/>
<path fill-rule="evenodd" clip-rule="evenodd" d="M161.929 40.4944V29.9157L179.839 12.1533V9.9883H196.371V40.4944H187.76V32.6219H171.572L163.749 40.4944H161.929ZM179.347 24.8969H187.662V16.6308L179.347 24.8969Z" fill="white"/>
<path d="M79.9556 9.9883H88.5662V40.4944H79.9556V9.9883Z" fill="white"/>
<path d="M93.7326 40.4944H102.343V24.6875L118.15 40.4944H122.91V9.9883H114.3V24.4667L99.8212 9.9883L93.7326 9.9883V40.4944Z" fill="white"/>
<path d="M244.984 9.9883H253.595V48.4162L244.984 39.904V9.9883Z" fill="white"/>
<path d="M234.75 17.5656V9.9883L263.976 9.9883V17.5656L234.75 17.5656Z" fill="white"/>
<path d="M128.077 16.0895V34.3932C128.077 37.7628 130.808 40.4944 134.178 40.4944H157.107V32.9171H136.687V17.5656L157.107 17.5656V9.9883H134.178C130.808 9.9883 128.077 12.7199 128.077 16.0895Z" fill="white"/>
<path d="M231.01 33.9996V26.0286C231.01 23.5286 228.983 21.5019 226.483 21.5019H210.148V17.5656H223.777L231.355 9.9883L208.081 9.9883C204.494 9.9883 201.587 12.8961 201.587 16.4832V23.7653C201.587 26.7001 203.966 29.0792 206.9 29.0792H222.252V32.9171H208.672L201.094 40.4944H224.515C228.102 40.4944 231.01 37.5866 231.01 33.9996Z" fill="white"/>
</svg>
