<svg width="276" height="70" viewBox="0 0 276 70" fill="none" xmlns="http://www.w3.org/2000/svg">
<g clip-path="url(#clip0_396_1061)">
<path fill-rule="evenodd" clip-rule="evenodd" d="M95.5108 33.4535L93.091 38.1313L90.1018 43.6596H86.401L83.5541 38.2731L80.992 33.4535H80.8496V47.3452H75.583V21.5464H80.4226L85.1199 30.6185L88.2514 36.9973H88.5361L91.6676 30.4767L96.0802 21.5464H100.92V47.3452H95.6531V33.4535H95.5108Z" fill="#FFFFFE"/>
<path fill-rule="evenodd" clip-rule="evenodd" d="M119.994 30.6184C119.994 29.7679 119.851 29.0592 119.567 28.4922C119.282 27.9252 118.855 27.3582 118.428 27.0747C118.001 26.6494 117.432 26.3659 116.862 26.2241C116.293 26.0824 115.723 25.9406 115.154 25.9406C114.585 25.9406 114.015 26.0824 113.304 26.2241C112.734 26.3659 112.165 26.6494 111.738 27.0747C111.311 27.4999 110.884 27.9252 110.599 28.4922C110.314 29.0592 110.172 29.7679 110.172 30.6184V38.1313C110.172 38.9818 110.314 39.6905 110.599 40.2575C110.884 40.8246 111.311 41.3916 111.738 41.6751C112.165 42.1003 112.734 42.3838 113.304 42.5256C113.873 42.6673 114.442 42.8091 115.154 42.8091C115.723 42.8091 116.293 42.6673 116.862 42.5256C117.432 42.3838 118.001 42.1003 118.428 41.6751C118.855 41.2498 119.282 40.8246 119.567 40.2575C119.851 39.6905 119.994 38.9818 119.994 38.1313V30.6184ZM125.26 38.9818C125.26 40.3993 124.976 41.5333 124.406 42.6673C123.837 43.6596 123.125 44.6518 122.271 45.3606C121.417 46.0694 120.278 46.6364 118.997 46.9199C117.716 47.3451 116.435 47.4869 115.154 47.4869C113.731 47.4869 112.45 47.3451 111.311 46.9199C110.03 46.4946 109.033 46.0694 108.037 45.3606C107.183 44.6518 106.471 43.8013 105.902 42.6673C105.333 41.6751 105.048 40.3993 105.048 38.9818V29.4844C105.048 28.0669 105.333 26.9329 105.902 25.7989C106.471 24.8066 107.183 23.8144 108.179 23.2474C109.176 22.5386 110.172 21.9716 111.453 21.6881C112.734 21.4046 113.873 21.1211 115.154 21.1211C116.435 21.1211 117.716 21.2628 118.855 21.6881C120.136 22.1134 121.132 22.5386 122.129 23.2474C123.125 23.9561 123.837 24.8066 124.406 25.9406C124.976 27.2164 125.26 28.3504 125.26 29.7679V38.9818Z" fill="#FFFFFE"/>
<path fill-rule="evenodd" clip-rule="evenodd" d="M143.907 39.4071C143.907 38.4148 143.622 37.5643 142.91 36.9973C142.341 36.4303 141.345 36.1468 140.348 36.1468H134.797V42.6674H140.348C141.487 42.6674 142.341 42.3839 143.053 41.8169C143.764 41.2499 143.907 40.3993 143.907 39.4071ZM143.622 29.0592C143.622 28.067 143.337 27.3582 142.768 26.9329C142.199 26.3659 141.345 26.2242 140.064 26.2242H134.797V31.8942H140.206C141.345 31.8942 142.199 31.6107 142.768 31.1855C143.337 30.4767 143.622 29.9097 143.622 29.0592ZM149.458 39.5488C149.458 40.5411 149.316 41.5334 149.031 42.5256C148.746 43.3761 148.177 44.2266 147.608 44.9354C147.038 45.6441 146.184 46.2112 145.188 46.6364C144.191 47.0617 143.195 47.2034 141.914 47.2034H129.53V21.5464H141.345C142.626 21.5464 143.764 21.6881 144.761 22.1134C145.757 22.5386 146.469 22.9639 147.181 23.6727C147.75 24.3814 148.319 25.0902 148.604 25.9407C148.889 26.7912 149.031 27.6417 149.031 28.634C149.031 29.6262 148.746 30.6185 148.319 31.6107C147.75 32.603 147.038 33.3118 145.9 33.8788C146.469 34.1623 147.038 34.5875 147.465 35.0128C147.892 35.438 148.319 36.005 148.604 36.572C148.889 37.1391 149.173 37.7061 149.316 38.2731C149.316 38.5566 149.458 39.1236 149.458 39.5488Z" fill="#FFFFFE"/>
<path fill-rule="evenodd" clip-rule="evenodd" d="M161.985 24.9481C161.7 25.6568 161.416 26.6491 160.989 27.9249C160.561 29.2006 160.134 30.4764 159.707 31.8939C159.28 33.3114 158.853 34.5872 158.426 35.863C157.999 37.1387 157.715 38.131 157.43 38.8397H166.967C166.682 38.131 166.397 37.1387 165.97 35.863C165.543 34.5872 165.116 33.3114 164.547 31.8939C164.12 30.4764 163.551 29.2006 163.124 27.9249C162.697 26.6491 162.412 25.6568 161.985 24.9481ZM169.814 47.2031C169.529 46.2108 169.102 45.2186 168.817 44.2263C168.533 43.234 168.106 42.2418 167.821 41.2495H156.576L154.583 47.2031H151.736C153.302 42.8088 154.726 38.5562 156.291 34.3037C157.857 30.0511 159.28 25.7986 160.846 21.4043H163.693L172.803 47.2031H169.814Z" fill="#FFFFFE"/>
<path fill-rule="evenodd" clip-rule="evenodd" d="M175.507 47.2034V21.5464H178.211V44.9354H192.588V47.3452H175.507V47.2034Z" fill="#FFFFFE"/>
<path fill-rule="evenodd" clip-rule="evenodd" d="M199.705 47.2034H197V37.4226C195.719 34.7293 194.296 32.036 193.015 29.4845C191.734 26.7912 190.31 24.2397 189.029 21.5464H192.018C192.161 21.6881 192.303 22.1134 192.588 22.8222C192.873 23.3892 193.3 24.2397 193.584 25.0902C194.011 25.9407 194.438 26.9329 194.865 27.9252C195.292 28.9175 195.719 29.9097 196.289 30.7602C196.716 31.6107 197.143 32.4613 197.427 33.3118C197.854 34.0205 198.139 34.5875 198.281 35.0128C198.424 34.7293 198.566 34.304 198.993 33.5953C199.278 32.8865 199.705 32.036 200.132 31.1855C200.559 30.335 200.986 29.3427 201.413 28.3505C201.84 27.3582 202.267 26.3659 202.694 25.5154C203.121 24.6649 203.548 23.8144 203.833 23.1057C204.117 22.3969 204.402 21.9716 204.545 21.6881H207.391L199.563 37.5643V47.2034H199.705Z" fill="#FFFFFE"/>
<path fill-rule="evenodd" clip-rule="evenodd" d="M219.348 23.9562V47.2034H216.644V23.9562H208.673V21.5464H227.035V23.9562H219.348Z" fill="#FFFFFE"/>
<path fill-rule="evenodd" clip-rule="evenodd" d="M231.021 47.2034H233.725V21.5464H231.021V47.2034Z" fill="#FFFFFE"/>
<path fill-rule="evenodd" clip-rule="evenodd" d="M248.102 21.2627C250.948 21.2627 253.226 21.9715 255.219 23.389L253.795 25.3735C253.083 24.8065 252.087 24.3812 251.091 24.0977C250.094 23.8142 249.098 23.6725 248.102 23.6725C247.248 23.6725 246.393 23.8142 245.682 24.0977C244.828 24.3812 244.258 24.6647 243.547 25.2317C242.977 25.7987 242.408 26.3658 241.981 27.2163C241.554 28.0668 241.412 29.059 241.412 30.193V38.4146C241.412 39.5486 241.554 40.5409 241.981 41.3914C242.408 42.2419 242.835 42.9507 243.547 43.3759C244.116 43.9429 244.828 44.3682 245.682 44.5099C246.536 44.7934 247.248 44.9352 248.102 44.9352C249.098 44.9352 250.237 44.7934 251.233 44.5099C252.229 44.2264 253.226 43.8012 253.938 43.0924L255.219 45.077C254.507 45.644 253.511 46.211 252.229 46.6362C250.948 47.0615 249.667 47.345 248.102 47.345C246.82 47.345 245.539 47.2032 244.401 46.778C243.262 46.3527 242.266 45.7857 241.412 45.077C240.557 44.3682 239.988 43.3759 239.419 42.3837C238.992 41.3914 238.707 40.1156 238.707 38.8399V29.7678C238.707 28.492 238.992 27.358 239.419 26.3658C239.846 25.3735 240.557 24.3812 241.412 23.6725C242.266 22.9637 243.262 22.3967 244.401 21.9715C245.539 21.4044 246.82 21.2627 248.102 21.2627Z" fill="#FFFFFE"/>
<path fill-rule="evenodd" clip-rule="evenodd" d="M276 40.2574C276 41.3914 275.715 42.3837 275.288 43.2342C274.861 44.0847 274.292 44.9352 273.438 45.5022C272.584 46.0692 271.73 46.6362 270.591 46.9197C269.452 47.2032 268.171 47.4867 266.89 47.4867C265.182 47.4867 263.474 47.2032 262.05 46.778C260.485 46.3527 259.061 45.644 257.638 44.6517L259.061 42.6672C260.2 43.3759 261.481 43.9429 262.762 44.5099C264.043 44.9352 265.466 45.2187 266.89 45.2187C268.74 45.2187 270.306 44.7934 271.445 43.9429C272.584 43.0924 273.153 41.9584 273.153 40.3992C273.153 39.5486 273.011 38.6981 272.584 38.1311C272.157 37.5641 271.587 37.1389 271.018 36.7136C270.306 36.2884 269.594 36.0049 268.883 35.8631C268.029 35.7213 267.317 35.4378 266.463 35.2961C265.466 35.1543 264.47 34.8708 263.474 34.5873C262.477 34.3038 261.623 33.8786 260.912 33.3116C260.2 32.7446 259.488 32.0358 259.061 31.3271C258.634 30.4765 258.349 29.4843 258.349 28.3503C258.349 27.358 258.492 26.3658 258.919 25.5152C259.346 24.6647 259.915 23.956 260.627 23.2472C261.339 22.6802 262.193 22.1132 263.189 21.8297C264.185 21.5462 265.324 21.2627 266.605 21.2627C268.029 21.2627 269.452 21.4044 270.875 21.688C272.299 21.9715 273.58 22.3967 274.861 23.1055L273.58 25.3735C272.441 24.8065 271.302 24.3812 270.021 24.0977C268.74 23.8142 267.602 23.6725 266.463 23.6725C265.751 23.6725 265.039 23.8142 264.328 23.956C263.616 24.0977 263.047 24.3812 262.477 24.8065C261.908 25.2317 261.481 25.657 261.196 26.3658C260.912 26.9328 260.769 27.6415 260.769 28.492C260.769 29.3425 260.912 29.9095 261.339 30.4765C261.766 31.0436 262.193 31.4688 262.904 31.7523C263.474 32.0358 264.185 32.3193 265.039 32.6028C265.751 32.7446 266.605 33.0281 267.317 33.1698C268.456 33.4533 269.594 33.7368 270.591 34.0203C271.587 34.3038 272.584 34.7291 273.295 35.2961C274.007 35.8631 274.719 36.5719 275.146 37.2806C275.715 37.9894 276 38.9816 276 40.2574Z" fill="#FFFFFE"/>
<path fill-rule="evenodd" clip-rule="evenodd" d="M51.3855 46.636L51.6701 47.0613L51.9548 46.3525L60.0683 50.1798L36.4396 65.2055L51.3855 46.636ZM14.8037 47.0613L15.0884 47.77L15.2307 47.3448L30.3189 65.3472L3.98577 50.1798L14.8037 47.0613ZM14.3767 45.7855L2.98938 49.1876V21.546L13.665 44.5098L14.3767 45.7855ZM30.746 11.1981L6.54791 15.7342L30.4613 3.26006L31.0306 10.7729L30.6036 10.6311L30.746 11.1981ZM32.7387 11.1981L32.8811 10.7729L32.454 10.9146L31.8847 3.40181L56.7944 15.7342L32.7387 11.1981ZM52.2395 45.0768L60.78 21.1208V48.9041L52.2395 45.0768ZM49.962 46.069L33.3081 66.7647L16.6542 46.7778L49.962 46.069ZM27.8991 13.0409L30.4613 12.6157L15.2307 44.6515L14.8037 43.801L3.27406 17.7187L27.8991 13.0409ZM60.4953 17.7187L51.2431 43.801L33.1658 12.6157L46.4035 15.1672L60.4953 17.7187ZM31.7423 13.1827L50.2467 44.7933L16.2271 45.502L31.7423 13.1827ZM62.0611 50.3216L62.6304 50.0381L62.0611 49.7546V17.577H62.2034H62.0611V17.4352L62.3457 16.8682L61.634 16.7265L31.6 1.7008V1.13379L31.0306 1.41729L30.4613 1.13379V1.7008L2.13533 16.5847L1.42362 16.7265L1.7083 17.4352H1.56596H1.7083L1.99299 18.0022H1.7083V49.3293L0.711914 49.6128L1.7083 50.1798V50.7468L2.27767 50.6051L33.3081 68.4658V68.324L33.4504 68.4658L61.634 50.6051L62.2034 50.8886V50.3216H62.0611Z" fill="#FFFFFE"/>
<path fill-rule="evenodd" clip-rule="evenodd" d="M62.2032 17.2939C62.2032 17.7191 61.7762 18.1444 61.3492 18.1444C60.9221 18.1444 60.4951 17.7191 60.4951 17.2939C60.4951 16.8686 60.9221 16.4434 61.3492 16.4434C61.7762 16.4434 62.2032 16.8686 62.2032 17.2939Z" fill="#FFFFFE"/>
<path fill-rule="evenodd" clip-rule="evenodd" d="M61.4913 16.8684C61.2066 16.8684 61.0642 17.0102 61.0642 17.2937C61.0642 17.5772 61.2066 17.7189 61.4913 17.7189C61.776 17.7189 61.9183 17.5772 61.9183 17.2937C61.7759 17.0102 61.6336 16.8684 61.4913 16.8684ZM61.4913 18.4277C60.7796 18.4277 60.3525 17.8607 60.3525 17.2937C60.3525 16.5849 60.9219 16.1597 61.4913 16.1597C62.203 16.1597 62.63 16.7267 62.63 17.2937C62.63 17.8607 62.0606 18.4277 61.4913 18.4277Z" fill="#FFFFFE"/>
<path fill-rule="evenodd" clip-rule="evenodd" d="M61.3495 17.01C61.2071 17.01 61.0648 17.1517 61.0648 17.2935C61.0648 17.4352 61.2071 17.577 61.3495 17.577C61.4918 17.577 61.6341 17.4352 61.6341 17.2935C61.7765 17.1517 61.6341 17.01 61.3495 17.01ZM61.3495 19.1362C60.3531 19.1362 59.499 18.2857 59.499 17.2935C59.499 16.3012 60.3531 15.4507 61.3495 15.4507C62.3458 15.4507 63.1999 16.3012 63.1999 17.2935C63.3422 18.2857 62.4882 19.1362 61.3495 19.1362Z" fill="#FFFFFE"/>
<path fill-rule="evenodd" clip-rule="evenodd" d="M61.3488 18.0027C60.9217 18.0027 60.637 17.7192 60.637 17.2939C60.637 16.8686 60.9217 16.5851 61.3488 16.5851C61.7758 16.5851 62.0605 16.8686 62.0605 17.2939C62.0605 17.5774 61.7758 18.0027 61.3488 18.0027ZM61.3488 15.7346C60.4947 15.7346 59.783 16.4434 59.783 17.2939C59.783 18.1444 60.4947 18.8532 61.3488 18.8532C62.2028 18.8532 62.9145 18.1444 62.9145 17.2939C62.9145 16.4434 62.2028 15.7346 61.3488 15.7346ZM61.3488 19.5619C60.0677 19.5619 59.0713 18.5697 59.0713 17.2939C59.0713 16.0181 60.0677 15.0259 61.3488 15.0259C62.6298 15.0259 63.6262 16.0181 63.6262 17.2939C63.7686 18.5697 62.6298 19.5619 61.3488 19.5619Z" fill="#FFFFFE"/>
<path fill-rule="evenodd" clip-rule="evenodd" d="M52.2393 45.3603C52.2393 45.7855 51.8123 46.2108 51.3853 46.2108C50.9583 46.2108 50.5312 45.7855 50.5312 45.3603C50.5312 44.935 50.9583 44.5098 51.3853 44.5098C51.8123 44.6515 52.2393 44.935 52.2393 45.3603Z" fill="#FFFFFE"/>
<path fill-rule="evenodd" clip-rule="evenodd" d="M51.3848 44.9352C51.1001 44.9352 50.9578 45.0769 50.9578 45.3604C50.9578 45.6439 51.1001 45.7857 51.3848 45.7857C51.6695 45.7857 51.8119 45.6439 51.8119 45.3604C51.8119 45.2187 51.6695 44.9352 51.3848 44.9352ZM51.3848 46.6362C50.6731 46.6362 50.2461 46.0692 50.2461 45.5022C50.2461 44.7934 50.8155 44.3682 51.3848 44.3682C52.0965 44.3682 52.5236 44.9352 52.5236 45.5022C52.6659 46.0692 52.0965 46.6362 51.3848 46.6362Z" fill="#FFFFFE"/>
<path fill-rule="evenodd" clip-rule="evenodd" d="M51.3856 45.0772C51.2433 45.0772 51.1009 45.2189 51.1009 45.3607C51.1009 45.5024 51.2433 45.6442 51.3856 45.6442C51.5279 45.6442 51.6703 45.5024 51.6703 45.3607C51.6703 45.2189 51.6703 45.0772 51.3856 45.0772ZM51.3856 47.3452C50.3892 47.3452 49.5352 46.4947 49.5352 45.5024C49.5352 44.5102 50.3892 43.6597 51.3856 43.6597C52.382 43.6597 53.236 44.5102 53.236 45.5024C53.3784 46.4947 52.5243 47.3452 51.3856 47.3452Z" fill="#FFFFFE"/>
<path fill-rule="evenodd" clip-rule="evenodd" d="M51.3849 46.0691C50.9579 46.0691 50.6732 45.7856 50.6732 45.3603C50.6732 44.9351 50.9579 44.6516 51.3849 44.6516C51.8119 44.6516 52.0966 44.9351 52.0966 45.3603C52.0966 45.7856 51.8119 46.0691 51.3849 46.0691ZM51.3849 43.9428C50.5308 43.9428 49.8191 44.6516 49.8191 45.5021C49.8191 46.3526 50.5308 47.0613 51.3849 47.0613C52.2389 47.0613 52.9506 46.3526 52.9506 45.5021C52.9506 44.6516 52.2389 43.9428 51.3849 43.9428ZM51.3849 47.6283C50.1038 47.6283 49.1074 46.6361 49.1074 45.3603C49.1074 44.0845 50.1038 43.0923 51.3849 43.0923C52.666 43.0923 53.6623 44.0845 53.6623 45.3603C53.8047 46.6361 52.666 47.6283 51.3849 47.6283Z" fill="#FFFFFE"/>
<path fill-rule="evenodd" clip-rule="evenodd" d="M62.2032 49.8964C62.2032 50.3217 61.7762 50.7469 61.3492 50.7469C60.9221 50.7469 60.4951 50.3217 60.4951 49.8964C60.4951 49.4712 60.9221 49.0459 61.3492 49.0459C61.7762 49.0459 62.2032 49.4712 62.2032 49.8964Z" fill="#FFFFFE"/>
<path fill-rule="evenodd" clip-rule="evenodd" d="M61.4913 49.4715C61.2066 49.4715 61.0642 49.6132 61.0642 49.8967C61.0642 50.1802 61.2066 50.322 61.4913 50.322C61.776 50.322 61.9183 50.1802 61.9183 49.8967C61.7759 49.755 61.6336 49.4715 61.4913 49.4715ZM61.4913 51.0307C60.7796 51.0307 60.3525 50.4637 60.3525 49.8967C60.3525 49.1879 60.9219 48.7627 61.4913 48.7627C62.203 48.7627 62.63 49.3297 62.63 49.8967C62.63 50.6055 62.0606 51.0307 61.4913 51.0307Z" fill="#FFFFFE"/>
<path fill-rule="evenodd" clip-rule="evenodd" d="M61.3495 49.613C61.2071 49.613 61.0648 49.7547 61.0648 49.8965C61.0648 50.0382 61.2071 50.18 61.3495 50.18C61.4918 50.18 61.6341 50.0382 61.6341 49.8965C61.7765 49.7547 61.6341 49.613 61.3495 49.613ZM61.3495 51.7392C60.3531 51.7392 59.499 50.8887 59.499 49.8965C59.499 48.9042 60.3531 48.0537 61.3495 48.0537C62.3458 48.0537 63.1999 48.9042 63.1999 49.8965C63.3422 51.0305 62.4882 51.7392 61.3495 51.7392Z" fill="#FFFFFE"/>
<path fill-rule="evenodd" clip-rule="evenodd" d="M61.3488 50.6052C60.9217 50.6052 60.637 50.3217 60.637 49.8964C60.637 49.4712 60.9217 49.1877 61.3488 49.1877C61.7758 49.1877 62.0605 49.4712 62.0605 49.8964C62.0605 50.3217 61.7758 50.6052 61.3488 50.6052ZM61.3488 48.4789C60.4947 48.4789 59.783 49.1877 59.783 50.0382C59.783 50.8887 60.4947 51.5975 61.3488 51.5975C62.2028 51.5975 62.9145 50.8887 62.9145 50.0382C62.9145 49.0459 62.2028 48.4789 61.3488 48.4789ZM61.3488 52.1645C60.0677 52.1645 59.0713 51.1722 59.0713 49.8964C59.0713 48.6207 60.0677 47.6284 61.3488 47.6284C62.6298 47.6284 63.6262 48.6207 63.6262 49.8964C63.6262 51.1722 62.6298 52.1645 61.3488 52.1645Z" fill="#FFFFFE"/>
<path fill-rule="evenodd" clip-rule="evenodd" d="M34.1622 67.332C34.1622 67.7572 33.7352 68.1825 33.3082 68.1825C32.8811 68.1825 32.4541 67.7572 32.4541 67.332C32.4541 66.9067 32.8811 66.4814 33.3082 66.4814C33.7352 66.4814 34.1622 66.9067 34.1622 67.332Z" fill="#FFFFFE"/>
<path fill-rule="evenodd" clip-rule="evenodd" d="M33.3077 66.9065C33.023 66.9065 32.8807 67.0483 32.8807 67.3318C32.8807 67.6153 33.023 67.757 33.3077 67.757C33.5924 67.757 33.7347 67.6153 33.7347 67.3318C33.7347 67.0483 33.5924 66.9065 33.3077 66.9065ZM33.3077 68.4658C32.596 68.4658 32.1689 67.8988 32.1689 67.3318C32.1689 66.623 32.7383 66.1978 33.3077 66.1978C34.0194 66.1978 34.4464 66.7648 34.4464 67.3318C34.5887 67.8988 34.0194 68.4658 33.3077 68.4658Z" fill="#FFFFFE"/>
<path fill-rule="evenodd" clip-rule="evenodd" d="M33.3075 67.0485C33.1651 67.0485 33.0228 67.1903 33.0228 67.332C33.0228 67.4738 33.1651 67.6155 33.3075 67.6155C33.4498 67.6155 33.5922 67.4738 33.5922 67.332C33.5922 67.1903 33.4498 67.0485 33.3075 67.0485ZM33.3075 69.1748C32.3111 69.1748 31.457 68.3243 31.457 67.332C31.457 66.3398 32.3111 65.4893 33.3075 65.4893C34.3039 65.4893 35.1579 66.3398 35.1579 67.332C35.3002 68.3243 34.4462 69.1748 33.3075 69.1748Z" fill="#FFFFFE"/>
<path fill-rule="evenodd" clip-rule="evenodd" d="M33.3077 68.0407C32.8807 68.0407 32.596 67.7572 32.596 67.332C32.596 66.9067 32.8807 66.6232 33.3077 66.6232C33.7348 66.6232 34.0194 66.9067 34.0194 67.332C34.0194 67.6155 33.7348 68.0407 33.3077 68.0407ZM33.3077 65.7727C32.4537 65.7727 31.742 66.4815 31.742 67.332C31.742 68.1825 32.4537 68.8912 33.3077 68.8912C34.1618 68.8912 34.8735 68.1825 34.8735 67.332C34.8735 66.4815 34.1618 65.7727 33.3077 65.7727ZM33.3077 69.6C32.0267 69.6 31.0303 68.6077 31.0303 67.332C31.0303 66.0562 32.0267 65.064 33.3077 65.064C34.5888 65.064 35.5852 66.0562 35.5852 67.332C35.5852 68.6077 34.5888 69.6 33.3077 69.6Z" fill="#FFFFFE"/>
<path fill-rule="evenodd" clip-rule="evenodd" d="M16.0851 46.2109C16.0851 46.6361 15.658 47.0614 15.231 47.0614C14.804 47.0614 14.377 46.6361 14.377 46.2109C14.377 45.7856 14.804 45.3604 15.231 45.3604C15.658 45.3604 16.0851 45.7856 16.0851 46.2109Z" fill="#FFFFFE"/>
<path fill-rule="evenodd" clip-rule="evenodd" d="M15.2305 45.7859C14.9458 45.7859 14.8035 45.9277 14.8035 46.2112C14.8035 46.4947 14.9458 46.6364 15.2305 46.6364C15.5152 46.6364 15.6576 46.4947 15.6576 46.2112C15.6576 45.9277 15.5152 45.7859 15.2305 45.7859ZM15.2305 47.3452C14.5188 47.3452 14.0918 46.7782 14.0918 46.2112C14.0918 45.5024 14.6612 45.0771 15.2305 45.0771C15.9422 45.0771 16.3693 45.6442 16.3693 46.2112C16.5116 46.9199 15.9422 47.3452 15.2305 47.3452Z" fill="#FFFFFE"/>
<path fill-rule="evenodd" clip-rule="evenodd" d="M15.2303 45.9274C15.088 45.9274 14.9456 46.0692 14.9456 46.2109C14.9456 46.3527 15.088 46.4944 15.2303 46.4944C15.3727 46.4944 15.515 46.3527 15.515 46.2109C15.515 46.0692 15.3727 45.9274 15.2303 45.9274ZM15.2303 48.0537C14.2339 48.0537 13.3799 47.2032 13.3799 46.2109C13.3799 45.2187 14.2339 44.3682 15.2303 44.3682C16.2267 44.3682 17.0808 45.2187 17.0808 46.2109C17.2231 47.2032 16.3691 48.0537 15.2303 48.0537Z" fill="#FFFFFE"/>
<path fill-rule="evenodd" clip-rule="evenodd" d="M15.2306 46.9197C14.8036 46.9197 14.5189 46.6361 14.5189 46.2109C14.5189 45.7856 14.8036 45.5021 15.2306 45.5021C15.6576 45.5021 15.9423 45.7856 15.9423 46.2109C15.9423 46.6361 15.6576 46.9197 15.2306 46.9197ZM15.2306 44.6516C14.3765 44.6516 13.6648 45.3604 13.6648 46.2109C13.6648 47.0614 14.3765 47.7702 15.2306 47.7702C16.0846 47.7702 16.7963 47.0614 16.7963 46.2109C16.7963 45.3604 16.0846 44.6516 15.2306 44.6516ZM15.2306 48.4789C13.9495 48.4789 12.9531 47.4867 12.9531 46.2109C12.9531 44.9351 13.9495 43.9429 15.2306 43.9429C16.5117 43.9429 17.5081 44.9351 17.5081 46.2109C17.5081 47.4867 16.5117 48.4789 15.2306 48.4789Z" fill="#FFFFFE"/>
<path fill-rule="evenodd" clip-rule="evenodd" d="M3.13193 17.2939C3.13193 17.7191 2.7049 18.1444 2.27788 18.1444C1.85085 18.1444 1.42383 17.8609 1.42383 17.2939C1.42383 16.8686 1.85085 16.4434 2.27788 16.4434C2.7049 16.4434 3.13193 16.7269 3.13193 17.2939Z" fill="#FFFFFE"/>
<path fill-rule="evenodd" clip-rule="evenodd" d="M2.2774 16.8684C1.99272 16.8684 1.85038 17.0102 1.85038 17.2937C1.85038 17.5772 1.99272 17.7189 2.2774 17.7189C2.56209 17.7189 2.70443 17.5772 2.70443 17.2937C2.70443 17.0102 2.56209 16.8684 2.2774 16.8684ZM2.2774 18.4277C1.5657 18.4277 1.13867 17.8607 1.13867 17.2937C1.13867 16.5849 1.70804 16.1597 2.2774 16.1597C2.98911 16.1597 3.41613 16.7267 3.41613 17.2937C3.55848 17.8607 2.98911 18.4277 2.2774 18.4277Z" fill="#FFFFFE"/>
<path fill-rule="evenodd" clip-rule="evenodd" d="M2.2772 16.8682C2.13485 16.8682 1.99251 17.01 1.99251 17.1517C1.99251 17.2935 2.13485 17.4352 2.2772 17.4352C2.41954 17.4352 2.56188 17.2935 2.56188 17.1517C2.56188 17.01 2.41954 16.8682 2.2772 16.8682ZM2.2772 19.1362C1.28081 19.1362 0.426758 18.2857 0.426758 17.2935C0.426758 16.3012 1.28081 15.4507 2.2772 15.4507C3.27359 15.4507 4.12764 16.3012 4.12764 17.2935C4.26998 18.2857 3.41593 19.1362 2.2772 19.1362Z" fill="#FFFFFE"/>
<path fill-rule="evenodd" clip-rule="evenodd" d="M2.27746 17.8609C1.85044 17.8609 1.56576 17.5774 1.56576 17.1522C1.56576 16.7269 1.85044 16.4434 2.27746 16.4434C2.70449 16.4434 2.98917 16.7269 2.98917 17.1522C2.98917 17.5774 2.70449 17.8609 2.27746 17.8609ZM2.27746 15.7346C1.42341 15.7346 0.711707 16.4434 0.711707 17.2939C0.711707 18.1444 1.42341 18.8532 2.27746 18.8532C3.13151 18.8532 3.84322 18.1444 3.84322 17.2939C3.84322 16.4434 3.13151 15.7346 2.27746 15.7346ZM2.27746 19.5619C0.99639 19.5619 0 18.4279 0 17.2939C0 16.0181 0.99639 15.0259 2.27746 15.0259C3.55854 15.0259 4.55493 16.0181 4.55493 17.2939C4.55493 18.4279 3.55854 19.5619 2.27746 19.5619Z" fill="#FFFFFE"/>
<path fill-rule="evenodd" clip-rule="evenodd" d="M32.5958 11.7655C32.5958 12.1908 32.1688 12.6161 31.7417 12.6161C31.3147 12.6161 30.8877 12.1908 30.8877 11.7655C30.8877 11.3403 31.3147 10.915 31.7417 10.915C32.1688 10.915 32.5958 11.1985 32.5958 11.7655Z" fill="#FFFFFE"/>
<path fill-rule="evenodd" clip-rule="evenodd" d="M31.7422 11.3401C31.4576 11.3401 31.3152 11.4819 31.3152 11.7654C31.3152 12.0489 31.4576 12.1906 31.7422 12.1906C32.0269 12.1906 32.1693 12.0489 32.1693 11.7654C32.1693 11.4819 32.0269 11.3401 31.7422 11.3401ZM31.7422 12.8994C31.0305 12.8994 30.6035 12.3324 30.6035 11.7654C30.6035 11.0566 31.1729 10.6313 31.7422 10.6313C32.454 10.6313 32.881 11.1984 32.881 11.7654C32.881 12.3324 32.454 12.8994 31.7422 12.8994Z" fill="#FFFFFE"/>
<path fill-rule="evenodd" clip-rule="evenodd" d="M31.742 11.3399C31.5997 11.3399 31.4574 11.4816 31.4574 11.6234C31.4574 11.7651 31.5997 11.9069 31.742 11.9069C31.8844 11.9069 32.0267 11.7651 32.0267 11.6234C32.0267 11.4816 31.8844 11.3399 31.742 11.3399ZM31.742 13.6079C30.7456 13.6079 29.8916 12.7574 29.8916 11.7651C29.8916 10.7729 30.7456 9.92236 31.742 9.92236C32.7384 9.92236 33.5925 10.7729 33.5925 11.7651C33.5925 12.7574 32.7384 13.6079 31.742 13.6079Z" fill="#FFFFFE"/>
<path fill-rule="evenodd" clip-rule="evenodd" d="M31.7423 12.3326C31.3153 12.3326 31.0306 12.0491 31.0306 11.6238C31.0306 11.1986 31.3153 10.9151 31.7423 10.9151C32.1693 10.9151 32.454 11.1986 32.454 11.6238C32.454 12.0491 32.1693 12.3326 31.7423 12.3326ZM31.7423 10.2063C30.8883 10.2063 30.1766 10.9151 30.1766 11.7656C30.1766 12.6161 30.8883 13.3248 31.7423 13.3248C32.5964 13.3248 33.3081 12.6161 33.3081 11.7656C33.3081 10.9151 32.5964 10.2063 31.7423 10.2063ZM31.7423 14.0336C30.4612 14.0336 29.4648 13.0413 29.4648 11.7656C29.4648 10.4898 30.4612 9.49756 31.7423 9.49756C33.0234 9.49756 34.0198 10.4898 34.0198 11.7656C34.0198 12.8996 33.0234 14.0336 31.7423 14.0336Z" fill="#FFFFFE"/>
<path fill-rule="evenodd" clip-rule="evenodd" d="M31.7423 2.26799C31.7423 2.69324 31.3153 3.1185 30.8882 3.1185C30.4612 3.1185 30.0342 2.835 30.0342 2.26799C30.0342 1.84274 30.4612 1.41748 30.8882 1.41748C31.4576 1.41748 31.7423 1.84274 31.7423 2.26799Z" fill="#FFFFFE"/>
<path fill-rule="evenodd" clip-rule="evenodd" d="M30.8878 1.84255C30.6031 1.84255 30.4607 1.9843 30.4607 2.2678C30.4607 2.5513 30.6031 2.69306 30.8878 2.69306C31.1724 2.69306 31.3148 2.5513 31.3148 2.2678C31.3148 1.9843 31.1724 1.84255 30.8878 1.84255ZM30.8878 3.40181C30.176 3.40181 29.749 2.83481 29.749 2.2678C29.749 1.55904 30.3184 1.13379 30.8878 1.13379C31.5995 1.13379 32.0265 1.7008 32.0265 2.2678C32.1688 2.97656 31.5995 3.40181 30.8878 3.40181Z" fill="#FFFFFE"/>
<path fill-rule="evenodd" clip-rule="evenodd" d="M30.8885 1.98456C30.7462 1.98456 30.6038 2.12631 30.6038 2.26806C30.6038 2.40981 30.7462 2.55157 30.8885 2.55157C31.0309 2.55157 31.1732 2.40981 31.1732 2.26806C31.3155 2.12631 31.1732 1.98456 30.8885 1.98456ZM30.8885 4.11083C29.8921 4.11083 29.0381 3.26032 29.0381 2.26806C29.0381 1.2758 29.8921 0.425293 30.8885 0.425293C31.8849 0.425293 32.739 1.2758 32.739 2.26806C32.8813 3.26032 32.0273 4.11083 30.8885 4.11083Z" fill="#FFFFFE"/>
<path fill-rule="evenodd" clip-rule="evenodd" d="M30.8878 2.97678C30.4608 2.97678 30.1761 2.69328 30.1761 2.26802C30.1761 1.84277 30.4608 1.55927 30.8878 1.55927C31.3148 1.55927 31.5995 1.84277 31.5995 2.26802C31.5995 2.69328 31.3148 2.97678 30.8878 2.97678ZM30.8878 0.708758C30.0338 0.708758 29.3221 1.41752 29.3221 2.26802C29.3221 3.11853 30.0338 3.82729 30.8878 3.82729C31.7419 3.82729 32.4536 3.11853 32.4536 2.26802C32.4536 1.41752 31.7419 0.708758 30.8878 0.708758ZM30.8878 4.53605C29.6067 4.53605 28.6104 3.54379 28.6104 2.26802C28.6104 0.992261 29.6067 0 30.8878 0C32.1689 0 33.1653 0.992261 33.1653 2.26802C33.3076 3.54379 32.1689 4.53605 30.8878 4.53605Z" fill="#FFFFFE"/>
<path fill-rule="evenodd" clip-rule="evenodd" d="M3.4161 50.0385C3.4161 50.4637 2.98908 50.889 2.56206 50.889C2.13503 50.889 1.70801 50.6055 1.70801 50.0385C1.70801 49.6132 2.13503 49.188 2.56206 49.188C2.98908 49.188 3.4161 49.6132 3.4161 50.0385Z" fill="#FFFFFE"/>
<path fill-rule="evenodd" clip-rule="evenodd" d="M2.56256 49.6131C2.27788 49.6131 2.13554 49.7548 2.13554 50.0383C2.13554 50.3218 2.27788 50.4636 2.56256 50.4636C2.84724 50.4636 2.98958 50.3218 2.98958 50.0383C2.98958 49.7548 2.84724 49.6131 2.56256 49.6131ZM2.56256 51.1723C1.85085 51.1723 1.42383 50.6053 1.42383 50.0383C1.42383 49.3296 1.99319 48.9043 2.56256 48.9043C3.27427 48.9043 3.70129 49.4713 3.70129 50.0383C3.70129 50.7471 3.27427 51.1723 2.56256 51.1723Z" fill="#FFFFFE"/>
<path fill-rule="evenodd" clip-rule="evenodd" d="M2.56225 49.7546C2.41991 49.7546 2.27757 49.8963 2.27757 50.0381C2.27757 50.1798 2.41991 50.3216 2.56225 50.3216C2.70459 50.3216 2.84693 50.1798 2.84693 50.0381C2.84693 49.8963 2.70459 49.7546 2.56225 49.7546ZM2.56225 51.8809C1.56586 51.8809 0.71181 51.0303 0.71181 50.0381C0.569468 49.0458 1.42352 48.1953 2.56225 48.1953C3.55864 48.1953 4.41269 49.0458 4.41269 50.0381C4.41269 51.0303 3.55864 51.8809 2.56225 51.8809Z" fill="#FFFFFE"/>
<path fill-rule="evenodd" clip-rule="evenodd" d="M2.56262 50.7473C2.13559 50.7473 1.85091 50.4638 1.85091 50.0385C1.85091 49.6133 2.13559 49.3298 2.56262 49.3298C2.98964 49.3298 3.27433 49.6133 3.27433 50.0385C3.27433 50.4638 2.98964 50.7473 2.56262 50.7473ZM2.56262 48.4793C1.70857 48.4793 0.996863 49.188 0.996863 50.0385C0.996863 50.889 1.70857 51.5978 2.56262 51.5978C3.41667 51.5978 4.12837 50.889 4.12837 50.0385C4.12837 49.188 3.41667 48.4793 2.56262 48.4793ZM2.56262 52.3066C1.28155 52.3066 0.285156 51.3143 0.285156 50.0385C0.285156 48.7628 1.28155 47.7705 2.56262 47.7705C3.84369 47.7705 4.84008 48.7628 4.84008 50.0385C4.84008 51.3143 3.84369 52.3066 2.56262 52.3066Z" fill="#FFFFFE"/>
<path fill-rule="evenodd" clip-rule="evenodd" d="M15.8003 45.7858L33.3083 66.765L50.8163 45.077L60.4955 17.8607L31.7425 12.3324L3.27427 17.719L15.8003 45.7858ZM33.3083 68.8913L14.6616 46.4945L1.42383 16.7267L31.8849 11.0566H32.0272L62.4883 16.7267L52.2397 45.7858L52.0974 45.9275L33.3083 68.8913Z" fill="#FFFFFE"/>
<path fill-rule="evenodd" clip-rule="evenodd" d="M16.2271 45.644L33.3081 66.1979L50.3891 44.9352L59.9259 18.1442L31.7423 12.7576L3.84343 18.0024L16.2271 45.644ZM33.3081 67.332L15.5154 46.0692L2.70469 17.5772L31.7423 12.1906H31.8847L61.0647 17.7189L51.1008 45.5022L33.3081 67.332ZM14.9461 46.211L33.3081 68.1825L51.6701 45.3605L61.7764 17.0102L31.7423 11.3401L1.85065 17.0102L14.9461 46.211ZM33.3081 69.6L14.2343 46.6362L0.711914 16.4432L31.7423 10.6313H31.8847L62.7728 16.4432L52.2395 45.9275L52.0972 46.0692L33.3081 69.6Z" fill="#FFFFFE"/>
<path fill-rule="evenodd" clip-rule="evenodd" d="M37.151 28.067L37.0086 28.3505C36.5816 29.3428 36.0123 30.3351 35.4429 31.4691C34.8735 32.4613 34.4465 33.5954 33.8771 34.5876L32.7384 37.1391L32.3114 37.8479C32.0267 37.4226 31.8844 36.9974 31.5997 36.5721L30.6033 34.4459C30.0339 33.4536 29.6069 32.3196 29.0375 31.3273C28.4682 30.3351 28.0411 29.3428 27.4718 28.2088L27.3294 27.9253H25.7637V42.5257H27.4718V32.1778L31.5997 40.2577H32.8807L33.0231 39.9742C33.4501 39.2654 33.7348 38.4149 34.1618 37.7061V37.5644C34.5888 36.8556 34.8735 36.0051 35.3005 35.1546L35.5852 34.5876C35.8699 34.0206 36.1546 33.4536 36.4393 32.8866C36.5816 32.6031 36.724 32.3196 36.8663 32.0361V42.5257H38.5744V28.067H37.151Z" fill="#FFFFFE"/>
</g>
<defs>
<clipPath id="clip0_396_1061">
<rect width="276" height="69.6" fill="white"/>
</clipPath>
</defs>
</svg>
