<svg width="32" height="32" viewBox="0 0 32 32" fill="none" xmlns="http://www.w3.org/2000/svg">
<path d="M30.7126 9.71249L26.9376 13.475C26.1876 22.2125 18.8126 29 10.0001 29C8.18759 29 6.68759 28.7125 5.55009 28.15C4.63759 27.6875 4.26259 27.2 4.16259 27.05C4.07985 26.9243 4.02654 26.7816 4.00662 26.6325C3.9867 26.4833 4.00069 26.3316 4.04755 26.1887C4.09441 26.0457 4.17292 25.9151 4.27725 25.8067C4.38157 25.6983 4.50902 25.6148 4.65009 25.5625C4.67509 25.55 7.62509 24.425 9.53759 22.2625C8.35152 21.418 7.30903 20.3882 6.45009 19.2125C4.73759 16.8875 2.92509 12.85 4.01259 6.82499C4.04678 6.64588 4.1287 6.47932 4.24971 6.34291C4.37072 6.20649 4.52633 6.10529 4.70009 6.05C4.87441 5.99292 5.06106 5.98488 5.23964 6.02677C5.41822 6.06866 5.58184 6.15886 5.71259 6.2875C5.75009 6.33749 9.91259 10.4375 15.0001 11.7625V11C15.005 10.2071 15.166 9.42301 15.474 8.69238C15.7819 7.96175 16.2308 7.29894 16.7949 6.74179C17.359 6.18463 18.0274 5.74405 18.7618 5.44519C19.4962 5.14633 20.2822 4.99506 21.0751 5C22.1157 5.01484 23.1347 5.29897 24.0329 5.82472C24.931 6.35047 25.6777 7.0999 26.2001 8H30.0001C30.1975 7.99938 30.3907 8.05721 30.5553 8.16621C30.7199 8.27521 30.8486 8.43049 30.9251 8.6125C30.9971 8.79721 31.0154 8.99854 30.9778 9.1932C30.9402 9.38787 30.8482 9.56791 30.7126 9.71249Z" fill="black"/>
</svg>
